<svg width="133" height="133" viewBox="0 0 133 133" fill="none" xmlns="http://www.w3.org/2000/svg">
<circle cx="66.5" cy="66.5" r="66.5" fill="#021526"/>
<path d="M37.0529 116.5L9 67L37.0529 17.5H47L18.8353 67L47 116.5H37.0529Z" fill="#64FFDA"/>
<path d="M95.9471 17.5L124 67L95.9471 116.5H86L114.165 67L86 17.5H95.9471Z" fill="#64FFDA"/>
<path d="M78.5165 43.328V75.52C78.5165 77.5253 78.1538 79.36 77.4285 81.024C76.7458 82.6453 75.7432 84.032 74.4205 85.184C73.1405 86.336 71.5832 87.232 69.7485 87.872C67.9138 88.4693 65.8658 88.768 63.6045 88.768C59.0392 88.768 55.4978 87.6373 52.9805 85.376C50.5058 83.072 48.9272 80.064 48.2445 76.352L57.3325 74.496C57.6738 76.416 58.3138 77.9733 59.2525 79.168C60.2338 80.3627 61.6845 80.96 63.6045 80.96C65.2258 80.96 66.4845 80.448 67.3805 79.424C68.3192 78.3573 68.7885 76.736 68.7885 74.56V51.2H54.0685V43.328H78.5165Z" fill="#64FFDA"/>
</svg>
