<svg width="242" height="145" viewBox="0 0 242 145" fill="none" xmlns="http://www.w3.org/2000/svg">
<rect width="242" height="145" fill="none"/>
<path d="M41.0529 122L13 72.5L41.0529 23H51L22.8353 72.5L51 122H41.0529Z" fill="#64FFDA"/>
<path d="M96.6415 27.828V60.02C96.6415 62.0253 96.2788 63.86 95.5535 65.524C94.8708 67.1453 93.8682 68.532 92.5455 69.684C91.2655 70.836 89.7082 71.732 87.8735 72.372C86.0388 72.9693 83.9908 73.268 81.7295 73.268C77.1642 73.268 73.6228 72.1373 71.1055 69.876C68.6308 67.572 67.0522 64.564 66.3695 60.852L75.4575 58.996C75.7988 60.916 76.4388 62.4733 77.3775 63.668C78.3588 64.8627 79.8095 65.46 81.7295 65.46C83.3508 65.46 84.6095 64.948 85.5055 63.924C86.4442 62.8573 86.9135 61.236 86.9135 59.06V35.7H72.1935V27.828H96.6415ZM168.272 52.596L168.784 40.116H168.208L159.888 63.092L151.568 40.116H150.992L151.504 52.596V72.5H143.184V27.828H154.512L160.016 42.868H160.528L166.032 27.828H176.592V72.5H168.272V52.596ZM88.0834 84.58H97.0834C100.843 84.58 103.63 85.78 105.443 88.18C107.257 90.58 108.163 94.0333 108.163 98.54C108.163 103.047 107.257 106.5 105.443 108.9C103.63 111.3 100.843 112.5 97.0834 112.5H88.0834V84.58ZM96.6834 107.78C98.4701 107.78 99.7768 107.207 100.603 106.06C101.43 104.913 101.843 103.247 101.843 101.06V95.98C101.843 93.82 101.43 92.1667 100.603 91.02C99.7768 89.8733 98.4701 89.3 96.6834 89.3H94.0034V107.78H96.6834ZM112.708 112.5V84.58H130.548V89.5H118.708V95.9H130.148V100.82H118.708V107.58H130.548V112.5H112.708ZM141.252 112.5L133.852 84.58H140.532L143.812 98.78L145.452 106.82H145.772L147.452 98.78L150.772 84.58H157.132L149.732 112.5H141.252Z" fill="white"/>
<path d="M115.561 73.268C113.555 73.268 111.785 72.9267 110.249 72.244C108.713 71.5187 107.411 70.58 106.345 69.428C105.321 68.2333 104.531 66.868 103.977 65.332C103.465 63.7533 103.209 62.0893 103.209 60.34C103.209 57.652 103.849 55.3053 105.129 53.3C106.409 51.2947 108.286 49.5667 110.76 48.116C109.395 46.196 108.35 44.4893 107.625 42.996C106.942 41.5027 106.601 39.9453 106.601 38.324C106.601 36.7453 106.899 35.2733 107.497 33.908C108.137 32.5 109.011 31.3053 110.121 30.324C111.273 29.3 112.595 28.5107 114.089 27.956C115.625 27.3587 117.289 27.06 119.081 27.06C120.659 27.06 122.131 27.2947 123.497 27.764C124.862 28.1907 126.057 28.7667 127.081 29.492C128.147 30.2173 129.022 31.0707 129.705 32.052C130.43 32.9907 130.963 33.972 131.305 34.996L124.777 38.516C124.307 37.1507 123.582 36.084 122.601 35.316C121.619 34.5053 120.488 34.1 119.208 34.1C117.929 34.1 116.883 34.484 116.073 35.252C115.305 36.02 114.921 37.0227 114.921 38.26V38.58C114.921 39.1773 115.006 39.7533 115.177 40.308C115.347 40.82 115.646 41.4173 116.073 42.1C116.499 42.74 117.033 43.508 117.673 44.404C118.355 45.2573 119.209 46.324 120.233 47.604L123.881 52.212L126.953 56.948H127.337C127.465 56.2227 127.571 55.4333 127.657 54.58C127.742 53.684 127.806 52.788 127.849 51.892C127.934 50.9533 127.977 50.0573 127.977 49.204C128.019 48.308 128.041 47.4973 128.041 46.772H139.433V53.812H134.953C134.739 55.1773 134.419 56.5853 133.993 58.036C133.566 59.444 133.011 60.8947 132.329 62.388L140.649 72.5H130.537L125.417 66.292H124.969C124.67 68.468 123.689 70.1747 122.025 71.412C120.361 72.6493 118.206 73.268 115.561 73.268ZM117.929 66.036C118.91 66.036 119.827 65.8653 120.681 65.524C121.534 65.14 122.259 64.4573 122.857 63.476L114.601 52.98C113.491 54.0467 112.766 55.1347 112.425 56.244C112.083 57.3107 111.913 58.4627 111.913 59.7V59.828C111.913 61.876 112.446 63.4333 113.513 64.5C114.622 65.524 116.094 66.036 117.929 66.036Z" fill="#64FFDA"/>
<path d="M201.947 23L230 72.5L201.947 122H192L220.165 72.5L192 23H201.947Z" fill="#64FFDA"/>
</svg>
